# xmcd CD database file
#
# Track frame offsets:
#	150
#	9010
#	30165
#	35195
#	58732
#	61420
#	70440
#	77215
#	81227
#	91947
#	99292
#	123315
#	146500
#	154602
#	160145
#	164490
#	177657
#	195382
#	221405
#
# Disc length: 3251 seconds
#
# Revision: 7
# Processed by: cddbd v1.5.2PL0 Copyright (c) Steve Scherf et al.
# Submitted via: CDex 1.51
#
DISCID=f70cb113
DTITLE=Bernstein - Leonard Bernstein - Vol.09_1
DYEAR=1900
DGENRE=Classique
TTITLE0=Mass - I. Devotions Before Mass - 1. Antiphon: Kyrie eleison
TTITLE1=Mass - I. Devotions Before Mass - 2. Hymn and Psalm: A Simple Song
TTITLE2=Mass - I. Devotions Before Mass - 3. Responsory: Alleluia
TTITLE3=Mass - II. First Introit (Rondo) - 1. Prefatory Prayers
TTITLE4=Mass - II. First Introit (Rondo) - 2. Thrice-Triple Canon: Dominus vobiscum
TTITLE5=Mass - III. Second Introit - 1. In nomine Patris
TTITLE6=Mass - III. Second Introit - 2. Prayer for the Congregation (Chorale: Almighty Father)
TTITLE7=Mass - III. Second Introit - 3. Epiphany
TTITLE8=Mass - IV. Confession - 1. Confiteor
TTITLE9=Mass - IV. Confession - 2. Trope: I Don't Know
TTITLE10=Mass - IV. Confession - 3. Trope: Easy
TTITLE11=Mass - V. Meditation N°1: Orchestra alone
TTITLE12=Mass - VI. Gloria - 1. Gloria tibi
TTITLE13=Mass - VI. Gloria - 2. Gloria in excelsis
TTITLE14=Mass - VI. Gloria - 3. Trope: Half of the People
TTITLE15=Mass - VI. Gloria - 4. Trope: Thank You
TTITLE16=Mass - VII. Meditation N°2: Orchestra alone
TTITLE17=Mass - VIII. Epistle: The Word of the Lord
TTITLE18=Mass - IX. Gospel-Sermon: God Said
EXTD=
EXTT0=
EXTT1=
EXTT2=
EXTT3=
EXTT4=
EXTT5=
EXTT6=
EXTT7=
EXTT8=
EXTT9=
EXTT10=
EXTT11=
EXTT12=
EXTT13=
EXTT14=
EXTT15=
EXTT16=
EXTT17=
EXTT18=
PLAYORDER=
